<mxfile host="65bd71144e">
    <diagram id="CH7gCTz0KwvHnZRmayP1" name="Страница 1">
        <mxGraphModel dx="972" dy="713" grid="1" gridSize="10" guides="1" tooltips="1" connect="1" arrows="1" fold="1" page="1" pageScale="1" pageWidth="827" pageHeight="1169" math="0" shadow="0">
            <root>
                <mxCell id="0"/>
                <mxCell id="1" parent="0"/>
                <mxCell id="2" value="START" style="rounded=1;whiteSpace=wrap;html=1;fontSize=14;fontStyle=1" vertex="1" parent="1">
                    <mxGeometry x="280" y="10" width="120" height="60" as="geometry"/>
                </mxCell>
                <mxCell id="3" value="" style="endArrow=classic;html=1;fontSize=14;" edge="1" parent="1">
                    <mxGeometry width="50" height="50" relative="1" as="geometry">
                        <mxPoint x="340" y="70" as="sourcePoint"/>
                        <mxPoint x="340" y="100" as="targetPoint"/>
                        <Array as="points">
                            <mxPoint x="340" y="70"/>
                        </Array>
                    </mxGeometry>
                </mxCell>
                <mxCell id="4" value="&lt;br style=&quot;font-size: 14px;&quot;&gt;&lt;br style=&quot;font-size: 14px;&quot;&gt;int X = 3;&lt;br style=&quot;font-size: 14px;&quot;&gt;Length OriginalArray = 5;&lt;br style=&quot;font-size: 14px;&quot;&gt;string [] OriginalArray = new string [5];&lt;br style=&quot;font-size: 14px;&quot;&gt;int i = 0;&lt;br style=&quot;font-size: 14px;&quot;&gt;Length ResultArray = 0;&lt;br style=&quot;font-size: 14px;&quot;&gt;int count = 0;&lt;br style=&quot;font-size: 14px;&quot;&gt;string [] ResuitArray = new stting [0];&lt;br style=&quot;font-size: 14px;&quot;&gt;string Text = OriginalArray [i];&lt;br style=&quot;font-size: 14px;&quot;&gt;int S = Length.Text&lt;br style=&quot;font-size: 14px;&quot;&gt;&lt;br style=&quot;font-size: 14px;&quot;&gt;&lt;br style=&quot;font-size: 14px;&quot;&gt;&amp;nbsp;" style="shape=parallelogram;perimeter=parallelogramPerimeter;whiteSpace=wrap;html=1;fixedSize=1;strokeWidth=2;fontSize=14;" vertex="1" parent="1">
                    <mxGeometry x="175" y="100" width="330" height="170" as="geometry"/>
                </mxCell>
                <mxCell id="5" value="" style="endArrow=classic;html=1;fontSize=14;" edge="1" parent="1" source="4">
                    <mxGeometry width="50" height="50" relative="1" as="geometry">
                        <mxPoint x="390" y="480" as="sourcePoint"/>
                        <mxPoint x="340" y="320" as="targetPoint"/>
                    </mxGeometry>
                </mxCell>
                <mxCell id="6" value="&lt;br style=&quot;font-size: 14px;&quot;&gt;i &amp;lt;&amp;nbsp;&lt;span style=&quot;font-size: 14px;&quot;&gt;Length OriginalArray?&lt;/span&gt;&lt;br style=&quot;font-size: 14px;&quot;&gt;&amp;nbsp;" style="rhombus;whiteSpace=wrap;html=1;fontSize=14;" vertex="1" parent="1">
                    <mxGeometry x="237.5" y="317" width="205" height="90" as="geometry"/>
                </mxCell>
                <mxCell id="7" value="S &amp;lt;= X?" style="rhombus;whiteSpace=wrap;html=1;fontSize=14;" vertex="1" parent="1">
                    <mxGeometry x="251.25" y="450" width="177.5" height="100" as="geometry"/>
                </mxCell>
                <mxCell id="8" value="YES" style="endArrow=classic;html=1;exitX=0.5;exitY=1;exitDx=0;exitDy=0;entryX=0.5;entryY=0;entryDx=0;entryDy=0;fontSize=14;" edge="1" parent="1" source="6" target="7">
                    <mxGeometry width="50" height="50" relative="1" as="geometry">
                        <mxPoint x="390" y="510" as="sourcePoint"/>
                        <mxPoint x="440" y="460" as="targetPoint"/>
                    </mxGeometry>
                </mxCell>
                <mxCell id="9" value="YES" style="endArrow=classic;html=1;exitX=0.5;exitY=1;exitDx=0;exitDy=0;fontSize=14;" edge="1" parent="1" source="7">
                    <mxGeometry width="50" height="50" relative="1" as="geometry">
                        <mxPoint x="390" y="500" as="sourcePoint"/>
                        <mxPoint x="340" y="600" as="targetPoint"/>
                    </mxGeometry>
                </mxCell>
                <mxCell id="10" value="&lt;span style=&quot;font-size: 14px;&quot;&gt;Length ResultArray + 1&amp;nbsp;&lt;/span&gt;" style="rounded=0;whiteSpace=wrap;html=1;fontSize=14;" vertex="1" parent="1">
                    <mxGeometry x="237.5" y="600" width="202.5" height="60" as="geometry"/>
                </mxCell>
                <mxCell id="11" value="ResultArray [count] = OriginalArray [i]" style="rounded=0;whiteSpace=wrap;html=1;fontSize=14;" vertex="1" parent="1">
                    <mxGeometry x="237.5" y="690" width="202.5" height="60" as="geometry"/>
                </mxCell>
                <mxCell id="12" value="" style="endArrow=classic;html=1;exitX=0.5;exitY=1;exitDx=0;exitDy=0;fontSize=14;" edge="1" parent="1" source="11">
                    <mxGeometry width="50" height="50" relative="1" as="geometry">
                        <mxPoint x="390" y="650" as="sourcePoint"/>
                        <mxPoint x="339" y="780" as="targetPoint"/>
                    </mxGeometry>
                </mxCell>
                <mxCell id="13" value="Count ++" style="rounded=0;whiteSpace=wrap;html=1;fontSize=14;" vertex="1" parent="1">
                    <mxGeometry x="237.5" y="780" width="202.5" height="60" as="geometry"/>
                </mxCell>
                <mxCell id="14" value="i ++" style="rounded=0;whiteSpace=wrap;html=1;fontSize=14;" vertex="1" parent="1">
                    <mxGeometry x="237.5" y="870" width="202.5" height="50" as="geometry"/>
                </mxCell>
                <mxCell id="15" value="" style="endArrow=classic;html=1;entryX=0.5;entryY=0;entryDx=0;entryDy=0;fontSize=14;" edge="1" parent="1" target="14">
                    <mxGeometry width="50" height="50" relative="1" as="geometry">
                        <mxPoint x="340" y="840" as="sourcePoint"/>
                        <mxPoint x="390" y="790" as="targetPoint"/>
                    </mxGeometry>
                </mxCell>
                <mxCell id="16" value="" style="endArrow=classic;html=1;exitX=0.5;exitY=1;exitDx=0;exitDy=0;entryX=0.5;entryY=0;entryDx=0;entryDy=0;fontSize=14;" edge="1" parent="1" source="10" target="11">
                    <mxGeometry width="50" height="50" relative="1" as="geometry">
                        <mxPoint x="390" y="650" as="sourcePoint"/>
                        <mxPoint x="440" y="600" as="targetPoint"/>
                    </mxGeometry>
                </mxCell>
                <mxCell id="17" value="NO" style="endArrow=classic;html=1;entryX=1;entryY=0.5;entryDx=0;entryDy=0;exitX=1;exitY=0.5;exitDx=0;exitDy=0;fontSize=14;" edge="1" parent="1" source="7" target="14">
                    <mxGeometry width="50" height="50" relative="1" as="geometry">
                        <mxPoint x="428.75" y="520" as="sourcePoint"/>
                        <mxPoint x="479" y="900" as="targetPoint"/>
                        <Array as="points">
                            <mxPoint x="479" y="500"/>
                            <mxPoint x="479" y="580"/>
                            <mxPoint x="479" y="895"/>
                        </Array>
                    </mxGeometry>
                </mxCell>
                <mxCell id="18" value="" style="endArrow=classic;html=1;exitX=0;exitY=0.5;exitDx=0;exitDy=0;entryX=0;entryY=0.5;entryDx=0;entryDy=0;fontSize=14;" edge="1" parent="1" source="14" target="6">
                    <mxGeometry width="50" height="50" relative="1" as="geometry">
                        <mxPoint x="380" y="750" as="sourcePoint"/>
                        <mxPoint x="250" y="500" as="targetPoint"/>
                        <Array as="points">
                            <mxPoint x="200" y="895"/>
                            <mxPoint x="200" y="362"/>
                        </Array>
                    </mxGeometry>
                </mxCell>
                <mxCell id="19" value="PrintResultArray" style="shape=parallelogram;perimeter=parallelogramPerimeter;whiteSpace=wrap;html=1;fixedSize=1;fontSize=14;" vertex="1" parent="1">
                    <mxGeometry x="230" y="960" width="250" height="90" as="geometry"/>
                </mxCell>
                <mxCell id="20" value="" style="endArrow=classic;html=1;fontSize=14;exitX=1;exitY=0.5;exitDx=0;exitDy=0;" edge="1" parent="1" source="6">
                    <mxGeometry width="50" height="50" relative="1" as="geometry">
                        <mxPoint x="520" y="490" as="sourcePoint"/>
                        <mxPoint x="470" y="1000" as="targetPoint"/>
                        <Array as="points">
                            <mxPoint x="600" y="362"/>
                            <mxPoint x="600" y="1000"/>
                        </Array>
                    </mxGeometry>
                </mxCell>
                <mxCell id="21" value="NO" style="edgeLabel;html=1;align=center;verticalAlign=middle;resizable=0;points=[];fontSize=14;" vertex="1" connectable="0" parent="20">
                    <mxGeometry x="-0.8671" y="1" relative="1" as="geometry">
                        <mxPoint x="1" as="offset"/>
                    </mxGeometry>
                </mxCell>
            </root>
        </mxGraphModel>
    </diagram>
</mxfile>